<?xml version="1.0" standalone="no"?>
<svg xmlns="http://www.w3.org/2000/svg" viewBox="0 0 121.56 29" width="121.56" height="29"><g fill="#ead017" color="#ead017" transform="translate(0, 0) scale(0.2265625)"><svg width="128.0" height="128.0" x="0.0" y="0.0" viewBox="0 0 128 128"><path d="M74.313 0l-28.094 78h8.469l28.094-78h-8.469zm-36.313 11.25l-2.188 1.406-34 22-1.813 1.156v4.25l1.688 1.219 34 24 2.313 1.594v-9.781l-26.844-18.969 26.844-17.375v-9.5zm52 0v9.5l26.844 17.375-26.844 18.969v9.781l2.313-1.594 34-24 1.688-1.219v-4.25l-1.813-1.156-34-22-2.188-1.406z" transform="translate(0 25)"></path></svg></g><line x1="41" y1="1" x2="41" y2="28" stroke="#000000" stroke-linecap="round"></line><path fill="#000000" fill-rule="nonzero" d="M5.62 16.73L5.62 16.73Q4.10 16.73 2.80 16.56Q1.49 16.39 0.02 16.32L0.02 16.32Q0 16.18 0 15.74Q0 15.31 0.07 14.98L0.07 14.98L1.03 14.90Q1.25 12.46 1.25 8.41Q1.25 4.37 1.01 2.47L1.01 2.47L0.07 2.40Q0 2.11 0 1.66Q0 1.20 0.02 1.06L0.02 1.06Q1.61 1.03 2.88 0.84Q4.15 0.65 5.62 0.65L5.62 0.65Q8.66 0.65 10.30 2.70Q11.93 4.75 11.93 8.57L11.93 8.57Q11.93 16.73 5.62 16.73ZM5.62 15.02L5.62 15.02Q7.68 15.02 8.77 13.37Q9.86 11.71 9.86 8.58Q9.86 5.45 8.76 3.76Q7.66 2.06 5.59 2.06L5.59 2.06Q4.39 2.06 3.22 2.52L3.22 2.52Q3.05 4.56 3.05 8.45Q3.05 12.34 3.24 14.52L3.24 14.52Q4.37 15.02 5.62 15.02ZM22.32 8.09L22.32 8.09L22.22 11.54Q22.22 13.18 22.42 14.74L22.42 14.74L23.30 14.81Q23.35 15.19 23.35 15.52Q23.35 15.84 23.28 16.20L23.28 16.20Q22.58 16.22 20.57 16.44L20.57 16.44Q20.40 15.98 20.30 15.31L20.30 15.31Q18.43 16.73 17.08 16.73Q15.72 16.73 14.96 15.85Q14.21 14.98 14.21 13.36Q14.21 11.74 15.23 10.80Q16.25 9.86 17.80 9.86Q19.34 9.86 20.45 10.44L20.45 10.44Q20.47 10.18 20.47 9.58L20.47 9.58Q20.47 7.80 19.98 7.02Q19.49 6.24 18.48 6.24Q17.47 6.24 17.02 6.62L17.02 6.62Q17.21 7.01 17.21 7.58Q17.21 8.16 16.84 8.58Q16.46 9.00 15.79 9.00L15.79 9.00Q14.66 9.00 14.66 7.67Q14.66 6.34 15.67 5.62Q16.68 4.90 18.50 4.90Q20.33 4.90 21.32 5.75Q22.32 6.60 22.32 8.09ZM20.35 11.95L20.35 11.95Q19.37 11.11 18.24 11.11L18.24 11.11Q16.08 11.11 16.08 13.03L16.08 13.03Q16.08 15.00 17.78 15.00L17.78 15.00Q18.41 15.00 19.12 14.68Q19.82 14.35 20.23 13.87L20.23 13.87Q20.35 12.43 20.35 11.95ZM31.70 6.58L30.70 6.50Q30.65 6.26 30.65 5.87Q30.65 5.47 30.72 5.16L30.72 5.16Q31.44 5.18 32.72 5.18Q34.01 5.18 34.70 5.16L34.70 5.16Q34.78 5.47 34.78 5.83Q34.78 6.19 34.73 6.50L34.73 6.50L34.01 6.58Q33.36 8.33 32.34 11.40Q31.32 14.47 30.80 15.91Q30.29 17.35 29.84 18.24Q29.40 19.13 28.87 19.92L28.87 19.92Q27.86 21.41 26.48 21.41Q25.10 21.41 23.95 20.64L23.95 20.64Q24.05 19.25 24.74 18.65L24.74 18.65Q25.46 19.63 26.50 19.63L26.50 19.63Q27.60 19.63 28.94 16.51L28.94 16.51Q27.72 12.22 25.08 6.58L25.08 6.58L24.29 6.50Q24.24 6.22 24.24 5.84Q24.24 5.47 24.31 5.16L24.31 5.16Q25.01 5.18 26.39 5.18Q27.77 5.18 28.49 5.16L28.49 5.16Q28.56 5.47 28.56 5.84Q28.56 6.22 28.51 6.50L28.51 6.50L27.53 6.58Q27.98 9.24 29.88 13.70L29.88 13.70L29.98 13.70Q31.18 9.82 31.70 6.58L31.70 6.58ZM39.72 4.90Q41.40 4.90 42.40 5.69Q43.39 6.48 43.39 7.74Q43.39 9.00 42.26 9.00L42.26 9.00Q41.59 9.00 41.22 8.58Q40.85 8.16 40.85 7.58Q40.85 7.01 41.04 6.62L41.04 6.62Q40.46 6.17 39.67 6.17Q38.88 6.17 38.36 6.55Q37.85 6.94 37.85 7.68Q37.85 8.42 38.44 8.98Q39.02 9.53 39.86 9.88Q40.70 10.22 41.54 10.60Q42.38 10.97 42.97 11.65Q43.56 12.34 43.56 13.34L43.56 13.34Q43.56 14.90 42.52 15.82Q41.47 16.73 39.67 16.73Q37.87 16.73 36.73 15.96Q35.59 15.19 35.59 13.94L35.59 13.94L35.59 13.85Q35.59 12.55 36.72 12.55L36.72 12.55Q37.39 12.55 37.76 12.97Q38.14 13.39 38.14 13.94Q38.14 14.50 38.02 14.81L38.02 14.81Q38.50 15.12 39.54 15.12Q40.58 15.12 41.12 14.76Q41.66 14.40 41.66 13.76Q41.66 13.13 41.08 12.62Q40.49 12.12 39.65 11.77Q38.81 11.42 37.97 11.03Q37.13 10.63 36.54 9.89Q35.95 9.14 35.95 8.11L35.95 8.11Q35.95 6.62 37.00 5.76Q38.04 4.90 39.72 4.90ZM49.39 4.90Q51.07 4.90 52.07 5.69Q53.06 6.48 53.06 7.74Q53.06 9.00 51.94 9.00L51.94 9.00Q51.26 9.00 50.89 8.58Q50.52 8.16 50.52 7.58Q50.52 7.01 50.71 6.62L50.71 6.62Q50.14 6.17 49.34 6.17Q48.55 6.17 48.04 6.55Q47.52 6.94 47.52 7.68Q47.52 8.42 48.11 8.98Q48.70 9.53 49.54 9.88Q50.38 10.22 51.22 10.60Q52.06 10.97 52.64 11.65Q53.23 12.34 53.23 13.34L53.23 13.34Q53.23 14.90 52.19 15.82Q51.14 16.73 49.34 16.73Q47.54 16.73 46.40 15.96Q45.26 15.19 45.26 13.94L45.26 13.94L45.26 13.85Q45.26 12.55 46.39 12.55L46.39 12.55Q47.06 12.55 47.44 12.97Q47.81 13.39 47.81 13.94Q47.81 14.50 47.69 14.81L47.69 14.81Q48.17 15.12 49.21 15.12Q50.26 15.12 50.80 14.76Q51.34 14.40 51.34 13.76Q51.34 13.13 50.75 12.62Q50.16 12.12 49.32 11.77Q48.48 11.42 47.64 11.03Q46.80 10.63 46.21 9.89Q45.62 9.14 45.62 8.11L45.62 8.11Q45.62 6.62 46.67 5.76Q47.71 4.90 49.39 4.90ZM55.32 10.68Q55.32 4.90 59.83 4.90Q64.34 4.90 64.34 10.68L64.34 10.68Q64.34 13.34 63.50 14.90L63.50 14.90Q62.54 16.73 59.83 16.73Q57.12 16.73 56.16 14.90L56.16 14.90Q55.32 13.34 55.32 10.68L55.32 10.68ZM57.29 10.62Q57.29 15.00 59.83 15.00Q62.38 15.00 62.38 10.62Q62.38 6.24 59.83 6.24Q57.29 6.24 57.29 10.62ZM67.66 10.80L67.66 10.80L67.66 7.51Q67.66 3.19 67.54 1.63L67.54 1.63L66.58 1.56Q66.50 1.25 66.50 0.83Q66.50 0.41 66.53 0.22L66.53 0.22Q68.71 0.10 69.65 0L69.65 0L69.74 0.12Q69.41 2.98 69.41 6.26L69.41 6.26L69.41 10.22Q69.41 13.18 69.62 14.98L69.62 14.98L70.51 15.05Q70.56 15.43 70.56 15.71Q70.56 15.98 70.49 16.39L70.49 16.39Q69.65 16.37 68.54 16.37Q67.44 16.37 66.62 16.39L66.62 16.39Q66.55 16.03 66.55 15.76Q66.55 15.48 66.60 15.05L66.60 15.05L67.44 14.98Q67.66 12.72 67.66 10.80Z" transform="translate(51, 6.316)"></path></svg>