<?xml version="1.0" encoding="UTF-8"?>
<svg width="198px" height="198px" viewBox="0 0 198 198" version="1.1" xmlns="http://www.w3.org/2000/svg" xmlns:xlink="http://www.w3.org/1999/xlink">
    <!-- Generator: Sketch 60.1 (88133) - https://sketch.com -->
    <title>Logo</title>
    <desc>Created with Sketch.</desc>
    <g id="Page-1" stroke="none" stroke-width="1" fill="none" fill-rule="evenodd">
        <g id="Logo">
            <rect id="Rectangle" fill="#A7BED3" x="0" y="0" width="198" height="198"></rect>
            <path d="M48.65,139 C57.95,139 65,136.58427 69.8,131.752809 C74.6,126.921348 77,119.674157 77,110.011236 L77,110.011236 L77,59 L31.2125,59 L31.2125,73.6067416 L58.8875,73.6067416 L58.8875,111.022472 C58.8875,119.71161 55.175,124.05618 47.75,124.05618 C42.275,124.05618 37.4,121.172285 33.125,115.404494 L33.125,115.404494 L23,127.539326 C25.85,131.209738 29.50625,134.037453 33.96875,136.022472 C38.43125,138.007491 43.325,139 48.65,139 Z M131.136364,138 C139.772727,138 147.405303,136.363571 154.034091,133.090714 C160.662879,129.817857 165.814394,125.209524 169.488636,119.265714 C173.162879,113.321905 175,106.4 175,98.5 C175,90.6 173.162879,83.6780952 169.488636,77.7342857 C165.814394,71.7904762 160.662879,67.1821429 154.034091,63.9092857 C147.405303,60.6364286 139.772727,59 131.136364,59 L131.136364,59 L95,59 L95,138 L131.136364,138 Z M130.835979,123 L114,123 L114,74 L130.835979,74 C138.798942,74 145.150353,76.2016129 149.890212,80.6048387 C154.630071,85.0080645 157,90.9731183 157,98.5 C157,106.026882 154.630071,111.991935 149.890212,116.395161 C145.150353,120.798387 138.798942,123 130.835979,123 L130.835979,123 Z" id="JD" fill="#FFFFFF" fill-rule="nonzero"></path>
        </g>
    </g>
</svg>