<?xml version="1.0" encoding="UTF-8"?>
<svg width="64px" height="63px" viewBox="0 0 64 63" version="1.1" xmlns="http://www.w3.org/2000/svg" xmlns:xlink="http://www.w3.org/1999/xlink">
    <!-- Generator: Sketch 60.1 (88133) - https://sketch.com -->
    <title>path55</title>
    <desc>Created with Sketch.</desc>
    <g id="Page-1" stroke="none" stroke-width="1" fill="none" fill-rule="evenodd">
        <path d="M57.2426652,17.6388015 C49.4811988,7.29766839 32.9015992,10.788295 22.2718661,10.286215 C22.2718661,10.286215 20.3901328,10.1815217 18.4947995,9.86954833 C18.4947995,9.86954833 19.2114662,10.1752683 20.1254662,10.490375 C27.5911993,13.0721482 31.1193326,13.5909349 35.6557324,15.9210682 C44.1791989,20.2872014 52.6619987,29.7977345 54.3879986,39.6773342 C51.1437321,30.1753345 41.2765323,21.9972014 32.2921325,18.6762681 C26.142666,16.4070682 15.0218663,14.1986682 15.0202663,14.1977349 C15.0254663,14.1898682 14.5770663,14.4305349 14.5707996,14.4357349 C7.00781316,18.1153348 6.7895865,34.495601 20.5254662,39.7757342 C26.547866,42.0924009 32.3083992,40.8200009 38.818799,42.3696008 C45.7625322,44.0205341 53.8046653,49.225334 57.0734652,56.0300005 C60.7379985,45.1606674 65.1401317,28.1554679 57.2426652,17.6388015 Z M57.3775986,59.3981338 C56.4535986,57.2029338 55.3259986,55.2248005 54.0259986,53.4554672 C48.3041321,59.3278671 40.3177323,62.986667 31.4901325,62.986667 C14.1254663,62.986667 -3.55271368e-15,48.8596007 -3.55271368e-15,31.4981345 C-3.55271368e-15,22.396668 3.88489324,14.1882682 10.0786397,8.4346417 L10.7682264,7.82370838 C9.61666643,8.76277502 9.43958643,10.4539216 10.3729197,11.6065216 C11.3119731,12.7596416 13.004693,12.9382949 14.1567996,12.0044416 C15.3119996,11.0685083 15.4879996,9.37318834 14.5526663,8.21850837 C13.6207997,7.06329506 11.9249997,6.88881507 10.7713597,7.82110838 L11.2406264,7.40548172 C16.7193329,2.79245517 23.7817327,0.00600190785 31.4901325,0.00600190785 C48.0879988,0.00600190785 61.7171985,12.9226683 62.8838651,29.2257345 C63.7478651,37.2081343 61.3901318,47.3440007 57.3775986,59.3981338" id="path55" fill="#5FB832" fill-rule="nonzero" transform="translate(31.530810, 31.496334) scale(-1, 1) rotate(-180.000000) translate(-31.530810, -31.496334) "></path>
    </g>
</svg>